<svg width="360" height="800" viewBox="0 0 360 800" fill="none" xmlns="http://www.w3.org/2000/svg">
<g clip-path="url(#clip0_16_5)">
<rect width="360" height="800" fill="#040D46"/>
<path d="M168.593 228.216C193.144 225.871 217.405 234.981 234.344 252.906L284.604 306.091C330.247 354.391 299.995 437.908 239.227 464.805C215.239 475.423 192.767 488.638 175.5 505C157.716 521.852 143.771 540.182 132.847 558.302C103.427 607.105 38.2035 642.047 -12.5621 616.159L-88.3956 577.488C-135.63 553.401 -146.791 490.862 -110.805 451.922L-21 354.75L99.115 249.918C111.72 238.917 127.458 232.144 144.113 230.554L168.593 228.216Z" fill="#D9D9D9" fill-opacity="0.05"/>
<circle cx="220.5" cy="837.5" r="188.5" fill="url(#paint0_radial_16_5)"/>
<circle cx="277.5" cy="101.5" r="188.5" fill="url(#paint1_radial_16_5)"/>
<circle cx="186.5" cy="254.5" r="34.5" fill="url(#paint2_radial_16_5)"/>
<circle cx="7.5" cy="724.5" r="144.5" fill="url(#paint3_radial_16_5)"/>
</g>
<defs>
<radialGradient id="paint0_radial_16_5" cx="0" cy="0" r="1" gradientUnits="userSpaceOnUse" gradientTransform="translate(303 735.5) rotate(132.142) scale(233.99)">
<stop stop-color="#FF9A00"/>
<stop offset="0.0001" stop-color="#FFBB53"/>
<stop offset="1" stop-color="#E88C00"/>
</radialGradient>
<radialGradient id="paint1_radial_16_5" cx="0" cy="0" r="1" gradientUnits="userSpaceOnUse" gradientTransform="translate(360 -0.500032) rotate(132.142) scale(233.99)">
<stop stop-color="#FF9A00"/>
<stop offset="0.0001" stop-color="#FFBB53"/>
<stop offset="1" stop-color="#E88C00"/>
</radialGradient>
<radialGradient id="paint2_radial_16_5" cx="0" cy="0" r="1" gradientUnits="userSpaceOnUse" gradientTransform="translate(187 289) rotate(-63.2039) scale(55.4549 120.715)">
<stop stop-color="#A3E7FD"/>
<stop offset="1" stop-color="#3FA1C1"/>
</radialGradient>
<radialGradient id="paint3_radial_16_5" cx="0" cy="0" r="1" gradientUnits="userSpaceOnUse" gradientTransform="translate(7.50002 724.5) rotate(90) scale(144.5 127.076)">
<stop stop-color="#6ED3EF"/>
<stop offset="1" stop-color="#83AAB4"/>
</radialGradient>
<clipPath id="clip0_16_5">
<rect width="360" height="800" fill="white"/>
</clipPath>
</defs>
</svg>
